<svg width="340" height="340" viewBox="0 0 340 340" fill="none" xmlns="http://www.w3.org/2000/svg">
<path fill-rule="evenodd" clip-rule="evenodd" d="M130 0H210V10H130V0ZM200 80L200 30H130V20L210 20L210 30L210 90H200H170L160 90V60H170V80H200ZM140 40H150H180H190V70H180V50L150 50V100H210V110H130V100H140V40ZM210 120H130V130H120V210H130L130 220H210L210 210H220V130H210V120ZM210 130V210H130V130H210ZM3.49691e-06 210L0 130H10L10 210H3.49691e-06ZM80 140L30 140L30 210H20L20 130L30 130L90 130V140V170L90 180H60V170H80V140ZM40 200V190L40 160V150H70V160H50L50 190H100V130H110V210H100V200H40ZM340 130H330V210H340V130ZM310 200H260V170H280V160L250 160V170V200V210H310L320 210V130H310V200ZM300 150V140H240V130H230V210H240V150H290V180H270V190H300V180V150ZM210 330V340H130V330H210ZM140 260V310H210V320H130L130 310L130 250H140H170H180L180 280H170L170 260H140ZM200 300H190H160H150V270H160V290H190L190 240H130V230H210V240H200L200 300Z" fill="#FEFAF6"/>
</svg>
